<?xml version="1.0" encoding="UTF-8"?>
<svg version="1.1" xmlns="http://www.w3.org/2000/svg" width="1024" height="1024">
<path d="M0 0 C7.19092553 4.86289528 11.02634106 11.39348859 15.125 18.875 C16.10551348 20.6186542 17.08602787 22.36230789 18.06660461 24.10592651 C19.39987338 26.48588137 20.71887389 28.87360705 22.03790283 31.26147461 C24.12195425 35.02738977 26.23028086 38.77978762 28.33325195 42.53515625 C29.4913002 44.60437248 30.64737087 46.67469665 31.80151367 48.74609375 C35.7611372 55.84081332 39.82090541 62.87037777 43.9375 69.875 C49.62134847 79.55087577 55.10790434 89.32556253 60.53710938 99.14624023 C65.72896015 108.53321966 71.02439531 117.85632169 76.36767578 127.15771484 C79.54220823 132.68537066 82.70986656 138.21695856 85.875 143.75 C86.21389252 144.34232422 86.55278503 144.93464844 86.90194702 145.54492188 C92.32135571 155.02103276 97.67359241 164.53327014 102.99609375 174.06420898 C108.59481163 184.08275754 114.29067843 194.0442014 120 204 C122.62677914 208.58231646 125.25208512 213.16547084 127.875 217.75 C128.21380188 218.34214294 128.55260376 218.93428589 128.90167236 219.54437256 C134.31448875 229.00899693 139.66060818 238.5094886 144.97631836 248.02905273 C152.47021833 261.43969948 160.0524378 274.80268086 167.890625 288.015625 C169 290 169 290 169 291 C48.55 291 -71.9 291 -196 291 C-191.68580749 282.37161498 -187.42056027 274.05397072 -182.5 265.8125 C-177.32710611 257.04906675 -172.29581454 248.21990121 -167.375 239.3125 C-161.54788219 228.77081569 -155.63210225 218.28648598 -149.63232422 207.84228516 C-146.45779177 202.31462934 -143.29013344 196.78304144 -140.125 191.25 C-139.78610748 190.65767578 -139.44721497 190.06535156 -139.09805298 189.45507812 C-133.67864429 179.97896724 -128.32640759 170.46672986 -123.00390625 160.93579102 C-117.40518837 150.91724246 -111.70932157 140.9557986 -106 131 C-103.37322086 126.41768354 -100.74791488 121.83452916 -98.125 117.25 C-97.78619812 116.65785706 -97.44739624 116.06571411 -97.09832764 115.45562744 C-91.67883517 105.97932957 -86.32650692 96.46690774 -81.00390625 86.93579102 C-75.94721155 77.88715838 -70.81375943 68.88410098 -65.65722656 59.89208984 C-63.46780969 56.07125422 -61.28271369 52.2479552 -59.09889221 48.42391968 C-57.38223532 45.41802998 -55.66406988 42.41302817 -53.94213867 39.41015625 C-50.77890472 33.8903156 -47.63551969 28.3616384 -44.55859375 22.79296875 C-44.02814453 21.84099609 -43.49769531 20.88902344 -42.95117188 19.90820312 C-41.9805361 18.1635636 -41.01876492 16.41394518 -40.06835938 14.65820312 C-35.57290643 6.61685377 -30.43613525 0.75898997 -21.609375 -2.34375 C-14.10452899 -4.2311963 -6.9354085 -3.36875405 0 0 Z " fill="#4B8AAA" transform="translate(499,88)"/>
<path d="M0 0 C3.77016416 1.25672139 4.00711403 2.29562331 5.86328125 5.72265625 C6.41306641 6.72361328 6.96285156 7.72457031 7.52929688 8.75585938 C8.11775391 9.84705078 8.70621094 10.93824219 9.3125 12.0625 C10.57750312 14.3669426 11.84448002 16.67030266 13.11328125 18.97265625 C13.43660431 19.5612442 13.75992737 20.14983215 14.0930481 20.7562561 C17.29170935 26.56581725 20.63434272 32.28614329 24 38 C29.37335762 47.14829713 34.59078477 56.37406639 39.75 65.64453125 C43.74964452 72.81353695 47.84348044 79.92092763 52 87 C57.37196793 96.14913289 62.59076525 105.37403131 67.75 114.64453125 C71.74964452 121.81353695 75.84348044 128.92092763 80 136 C85.37196793 145.14913289 90.59076525 154.37403131 95.75 163.64453125 C99.74964452 170.81353695 103.84348044 177.92092763 108 185 C113.37196793 194.14913289 118.59076525 203.37403131 123.75 212.64453125 C127.74964452 219.81353695 131.84348044 226.92092763 136 234 C140.76429581 242.1141913 145.42411392 250.27809387 150 258.5 C154.64472763 266.84242775 159.36606384 275.13336996 164.1875 283.375 C164.76258301 284.35879639 165.33766602 285.34259277 165.93017578 286.35620117 C168.71716749 291.11774198 171.51540182 295.8723985 174.32421875 300.62109375 C175.34122638 302.35151516 176.3581576 304.08198149 177.375 305.8125 C178.08112427 306.99561768 178.08112427 306.99561768 178.80151367 308.20263672 C179.22537354 308.92596191 179.6492334 309.64928711 180.0859375 310.39453125 C180.4576709 311.02206299 180.8294043 311.64959473 181.21240234 312.29614258 C182 314 182 314 182 317 C164.40980612 315.55556228 146.85979014 313.78152215 129.30946338 311.9227252 C125.40322578 311.50947625 121.49672906 311.0986892 117.590271 310.68753052 C109.09732013 309.79316259 100.60470191 308.89566447 92.11215329 307.99748611 C86.80112388 307.4358043 81.49002264 306.87480383 76.17890739 306.31393433 C61.44107425 304.7574733 46.70331576 303.20031023 31.96586704 301.64021301 C31.0275841 301.5408876 30.08930117 301.44156218 29.12258541 301.3392269 C27.22109215 301.13793468 25.31959892 300.93664214 23.41810573 300.7353493 C22.47438621 300.6354477 21.53066669 300.5355461 20.55834961 300.43261719 C19.61346729 300.33259191 18.66858496 300.23256663 17.69506984 300.12951028 C2.33468756 298.50360086 -13.02624885 296.88299062 -28.3874303 295.2646507 C-44.19978499 293.5987062 -60.01168439 291.92849702 -75.82313114 290.25395679 C-84.68488775 289.31553345 -93.54682693 288.37891754 -102.40926933 287.44699097 C-109.9404042 286.65503405 -117.47111304 285.85916772 -125.0012955 285.05820346 C-128.84002999 284.65000486 -132.67893525 284.24364285 -136.51838875 283.84225845 C-140.6817089 283.40696254 -144.84403831 282.96282229 -149.0063324 282.51782227 C-150.21633532 282.39271995 -151.42633823 282.26761763 -152.67300791 282.13872433 C-169.92251928 280.27218207 -169.92251928 280.27218207 -175 274 C-176.9150095 271.26427214 -177.62310367 268.51190207 -177.48828125 265.1484375 C-175.48818704 256.34802296 -168.05296673 248.11805899 -162.87329102 240.87524414 C-159.03711417 235.50576168 -155.3306647 230.06452142 -151.6875 224.5625 C-145.49073023 215.21359066 -139.2259123 205.91238159 -132.9375 196.625 C-132.19966782 195.5351178 -132.19966782 195.5351178 -131.44692993 194.42321777 C-128.44917763 189.99542633 -125.45031813 185.56838587 -122.45098877 181.1416626 C-120.16349478 177.76531646 -117.87671041 174.38848981 -115.58984375 171.01171875 C-109.9638369 162.70488186 -104.33608445 154.39922801 -98.70825195 146.09362793 C-95.68036055 141.62501397 -92.65259056 137.15631779 -89.625 132.6875 C-88.97987457 131.73528061 -88.97987457 131.73528061 -88.32171631 130.76382446 C-81.37661361 120.51227929 -74.43722021 110.25688052 -67.5 100 C-60.56196881 89.74192042 -53.62174781 79.48533406 -46.67581177 69.23260498 C-45.38007692 67.31999395 -44.084444 65.40731391 -42.78881836 63.49462891 C-38.82508934 57.64350134 -34.86017631 51.79318247 -30.89222717 45.94491577 C-20.53035586 30.67234231 -10.19835693 15.3825435 0 0 Z " fill="#4B8AAA" transform="translate(262,444)"/>
<path d="M0 0 C3.95973112 3.70825671 6.92875927 7.57047923 9.87890625 12.109375 C10.32769638 12.78883179 10.77648651 13.46828857 11.23887634 14.16833496 C12.19279666 15.61341101 13.14420198 17.06014996 14.09326172 18.50842285 C16.56153598 22.2742022 19.04867016 26.02748061 21.53515625 29.78125 C22.01824249 30.51136292 22.50132874 31.24147583 22.99905396 31.99371338 C26.4123946 37.14253496 29.8979181 42.23095532 33.5 47.25 C38.20714928 53.82208963 42.71119288 60.51278505 47.17797852 67.25024414 C52.38357214 75.09525438 57.65235792 82.8959906 62.9375 90.6875 C63.83390421 92.00927652 64.73030719 93.33105387 65.62670898 94.65283203 C67.00565175 96.68602873 68.38464298 98.71919247 69.76377869 100.7522583 C74.53273183 107.78326693 79.29252208 114.82046278 84.05160522 121.8581543 C94.49534458 137.30206409 104.94925759 152.73906348 115.40722656 168.17333984 C118.01913293 172.02814913 120.63070285 175.88318626 123.2421875 179.73828125 C123.67594193 180.37857773 124.10969635 181.01887421 124.55659485 181.67857361 C126.7442087 184.90790834 128.93167732 188.1373413 131.11889648 191.36694336 C135.97391042 198.53537741 140.83233163 205.70147753 145.69552612 212.86436462 C147.89787476 216.10910934 150.09770079 219.35551295 152.29199219 222.60571289 C152.93175491 223.55328712 152.93175491 223.55328712 153.58444214 224.52000427 C154.43994249 225.78716382 155.2953507 227.05438558 156.15066528 228.32167053 C158.73919546 232.15163865 161.34939895 235.96576094 163.97639465 239.7694397 C165.67541932 242.23409614 167.3625131 244.70677265 169.04751587 247.18103027 C169.8378014 248.33540111 170.63337678 249.48617153 171.43466187 250.63293457 C179.1249148 261.64668233 179.1249148 261.64668233 179 269 C177.47355782 273.17763122 175.55810608 276.30737918 172 279 C164.85602454 281.19763017 157.57622506 281.83951273 150.16389465 282.60720825 C148.7580699 282.75694308 147.35229826 282.90717717 145.94657534 283.05786502 C142.09829788 283.46892382 138.24930504 283.87289637 134.40015376 284.27567887 C130.24362199 284.71188439 126.08779186 285.15468216 121.93186951 285.59664917 C113.79699542 286.46071044 105.66149172 287.31869807 97.52575854 288.17462839 C88.05224946 289.17152996 78.57937957 290.17444172 69.10653123 291.17759906 C52.20733625 292.96698459 35.3075682 294.75089875 18.4074707 296.53173828 C2.0050261 298.26014265 -14.39700382 299.99241537 -30.79858398 301.72900391 C-31.80923368 301.8360103 -32.81988337 301.94301669 -33.86115881 302.05326571 C-34.87005564 302.160087 -35.87895247 302.26690829 -36.91842192 302.3769666 C-55.58992144 304.35386805 -74.26178296 306.32733069 -92.93382761 308.2990763 C-99.53905129 308.99665278 -106.14416991 309.69521863 -112.74925804 310.3940773 C-120.79472057 311.24526099 -128.84039133 312.09444567 -136.88632771 312.94113888 C-140.99235654 313.37326165 -145.09829408 313.80620704 -149.20399857 314.24140167 C-152.9606811 314.63957037 -156.7176097 315.03532534 -160.47475175 315.42913376 C-162.48102821 315.64005003 -164.48703475 315.85352901 -166.4930312 316.06709206 C-168.27709542 316.25334533 -168.27709542 316.25334533 -170.09720135 316.44336128 C-171.12380546 316.55163659 -172.15040958 316.6599119 -173.20812291 316.77146828 C-175.82127972 316.98537068 -178.37968878 317.04277673 -181 317 C-177.14593221 309.06530774 -173.00708986 301.39307447 -168.5 293.8125 C-163.56170962 285.43109458 -158.72711088 277.00227117 -154 268.5 C-148.8641073 259.27045651 -143.59786898 250.12762061 -138.25 241.01953125 C-134.07756041 233.8947181 -130.01504756 226.71453859 -126 219.5 C-120.86368611 210.27068598 -115.59787465 201.12763027 -110.25 192.01953125 C-106.07756041 184.8947181 -102.01504756 177.71453859 -98 170.5 C-92.86368611 161.27068598 -87.59787465 152.12763027 -82.25 143.01953125 C-78.07756041 135.8947181 -74.01504756 128.71453859 -70 121.5 C-64.86368611 112.27068598 -59.59787465 103.12763027 -54.25 94.01953125 C-50.07756041 86.8947181 -46.01504756 79.71453859 -42 72.5 C-36.86895831 63.28015946 -31.61097221 54.14500562 -26.26538086 45.0480957 C-21.34281072 36.64743484 -16.57874672 28.1629862 -11.88085938 19.63476562 C-8.16189265 12.92455315 -4.18905227 6.42709296 0 0 Z " fill="#4B8AAA" transform="translate(707,444)"/>
<path d="M0 0 C110.55 0 221.1 0 335 0 C325.27903794 17.82176379 315.48863673 35.57772732 305.20117188 53.07885742 C301.04215763 60.16941531 296.99694311 67.31697474 293 74.5 C287.86374835 83.72934771 282.59787376 92.87237125 277.25 101.98046875 C273.07756041 109.1052819 269.01504756 116.28546141 265 123.5 C259.86368611 132.72931402 254.59787465 141.87236973 249.25 150.98046875 C245.07756041 158.1052819 241.01504756 165.28546141 237 172.5 C231.86368611 181.72931402 226.59787465 190.87236973 221.25 199.98046875 C217.07756041 207.1052819 213.01504756 214.28546141 209 221.5 C203.86943701 230.71898037 198.61058167 239.85244536 193.26757812 248.94970703 C188.32593387 257.38635558 183.53474874 265.90272996 178.79296875 274.453125 C175.31522418 280.7114052 171.72579458 286.88600465 168 293 C165.01114732 290.22262654 162.98949092 287.56071009 161.0390625 283.984375 C160.4925 282.99308594 159.9459375 282.00179688 159.3828125 280.98046875 C158.51269531 279.38138672 158.51269531 279.38138672 157.625 277.75 C156.3690496 275.47293027 155.11118839 273.19691359 153.8515625 270.921875 C153.37121552 270.05290588 153.37121552 270.05290588 152.88116455 269.16638184 C149.67973033 263.38957881 146.34941341 257.691826 143 252 C137.62706493 242.85144835 132.40922126 233.62594446 127.25 224.35546875 C123.25035548 217.18646305 119.15651956 210.07907237 115 203 C109.62803207 193.85086711 104.40923475 184.62596869 99.25 175.35546875 C95.25035548 168.18646305 91.15651956 161.07907237 87 154 C81.62803207 144.85086711 76.40923475 135.62596869 71.25 126.35546875 C67.25035548 119.18646305 63.15651956 112.07907237 59 105 C53.62803207 95.85086711 48.40923475 86.62596869 43.25 77.35546875 C38.69175623 69.18522378 33.99622091 61.10222979 29.25878906 53.03491211 C24.39127861 44.72401296 19.67929794 36.33155935 14.99951172 27.91381836 C11.0654872 20.85267672 7.03336891 13.85975816 2.84277344 6.94750977 C0 2.20975565 0 2.20975565 0 0 Z " fill="#4B8AAA" transform="translate(318,432)"/>
<path d="M0 0 C5.54324006 2.87231352 10.65615047 6.43416741 15.81433105 9.93481445 C18.81960617 11.97367194 21.83540362 13.99682257 24.8515625 16.01953125 C25.44108704 16.41517273 26.03061157 16.81081421 26.63800049 17.21844482 C31.15050972 20.23911314 35.71185124 23.16553635 40.3359375 26.01171875 C45.72210635 29.330812 51.01441378 32.75803916 56.26538086 36.28686523 C62.44349614 40.43312995 68.66886845 44.50576953 74.8984375 48.57421875 C75.73069855 49.1178154 75.73069855 49.1178154 76.57977295 49.6723938 C79.43916013 51.53995775 82.29884068 53.40707177 85.15869141 55.27392578 C90.63647803 58.85007223 96.11098989 62.43122815 101.5859375 66.01171875 C103.75258982 67.42840736 105.91925651 68.84507399 108.0859375 70.26171875 C138.41927083 90.09505208 168.75260417 109.92838542 199.0859375 129.76171875 C200.15980713 130.46385498 201.23367676 131.16599121 202.34008789 131.8894043 C204.49295437 133.29706645 206.64578676 134.70478075 208.79858398 136.11254883 C213.83047218 139.40293763 218.86267921 142.69283517 223.89614868 145.98080444 C226.24820529 147.51726511 228.6000619 149.05403178 230.9519043 150.59082031 C232.59209137 151.66240605 234.23256406 152.73355457 235.87304688 153.8046875 C237.86068688 155.10356648 239.8463993 156.40540173 241.82983398 157.71069336 C243.63676584 158.89146547 245.45378092 160.05698003 247.28149414 161.20532227 C248.09610107 161.72408936 248.91070801 162.24285645 249.75 162.77734375 C250.46236816 163.22239258 251.17473633 163.66744141 251.90869141 164.12597656 C253.5859375 165.51171875 253.5859375 165.51171875 254.8984375 169.07421875 C254.5171275 173.26862872 253.41208043 174.45866799 250.5859375 177.51171875 C248.18945312 179.18652344 248.18945312 179.18652344 245.4921875 180.68359375 C244.47688965 181.25625977 243.4615918 181.82892578 242.41552734 182.41894531 C241.3167627 183.02706055 240.21799805 183.63517578 239.0859375 184.26171875 C236.71013257 185.59947581 234.33930196 186.94592985 231.96875 188.29296875 C231.35770416 188.63918274 230.74665833 188.98539673 230.11709595 189.34210205 C223.65146135 193.01742559 217.30364771 196.87849131 210.9609375 200.76171875 C200.88091844 206.92251858 190.75327817 212.99613637 180.5859375 219.01171875 C170.89336692 224.74832567 161.22464021 230.52047631 151.60250854 236.37457275 C149.86069846 237.43415609 148.11806533 238.49237373 146.37524414 239.55029297 C141.07251799 242.77188097 135.77931588 246.00729638 130.50390625 249.2734375 C128.67710778 250.39457108 126.85028639 251.51566732 125.0234375 252.63671875 C124.20198242 253.15226318 123.38052734 253.66780762 122.53417969 254.19897461 C121.41317871 254.88358765 121.41317871 254.88358765 120.26953125 255.58203125 C119.30358032 256.18168701 119.30358032 256.18168701 118.31811523 256.79345703 C116.5859375 257.51171875 116.5859375 257.51171875 113.5859375 256.51171875 C112.25830078 254.56005859 112.25830078 254.56005859 110.90625 251.97265625 C110.39658691 251.01190186 109.88692383 250.05114746 109.36181641 249.0612793 C108.81702637 248.01367432 108.27223633 246.96606934 107.7109375 245.88671875 C106.53569387 243.67089826 105.35856411 241.45607728 104.1796875 239.2421875 C103.58027344 238.11345215 102.98085938 236.9847168 102.36328125 235.82177734 C99.72244558 230.90358367 96.97463104 226.04913782 94.2109375 221.19921875 C89.45326123 212.83027681 84.7516394 204.43229069 80.0859375 196.01171875 C75.45543141 187.65754848 70.79728477 179.32057161 66.0859375 171.01171875 C60.75274658 161.60464226 55.48916638 152.16022554 50.24438477 142.70361328 C46.02028462 135.08883852 41.780337 127.48320607 37.5234375 119.88671875 C36.94916016 118.86191406 36.37488281 117.83710938 35.78320312 116.78125 C34.05114099 113.69120439 32.31863047 110.60141067 30.5859375 107.51171875 C23.37339075 94.65049761 16.17548502 81.78170162 9.0234375 68.88671875 C-3.79957857 45.70219238 -3.79957857 45.70219238 -17.14453125 22.81640625 C-19.8436951 17.91638573 -20.9980584 14.15701244 -20.4140625 8.51171875 C-18.94114674 4.44446273 -17.17514635 2.03602096 -13.6015625 -0.42578125 C-8.44800912 -2.14363238 -5.01832139 -2.18762065 0 0 Z " fill="#4B8AAA" transform="translate(604.4140625,104.48828125)"/>
<path d="M0 0 C3.97152339 3.19928273 5.95715503 5.46286665 7.05859375 10.5390625 C7.52127528 14.9932581 6.20935868 18.15817352 4.0625 22 C3.7022876 22.6808667 3.3420752 23.3617334 2.97094727 24.06323242 C1.75807781 26.32926967 0.51019943 28.57246012 -0.75 30.8125 C-1.18538086 31.58754883 -1.62076172 32.36259766 -2.06933594 33.16113281 C-4.49457044 37.45621789 -6.95073851 41.7328354 -9.41796875 46.00390625 C-13.05627985 52.31850116 -16.59413012 58.68736883 -20.125 65.0625 C-25.00282243 73.86435637 -29.89254146 82.65911633 -34.8125 91.4375 C-35.38669678 92.46214355 -35.96089355 93.48678711 -36.55249023 94.54248047 C-38.86089884 98.66081384 -41.17021294 102.77863916 -43.47949219 106.89648438 C-45.215916 109.99325374 -46.95188614 113.09027662 -48.6875 116.1875 C-49.26177734 117.21230469 -49.83605469 118.23710937 -50.42773438 119.29296875 C-54.74160603 126.99734154 -59.02988287 134.71572003 -63.3125 142.4375 C-68.44378598 151.68843606 -73.6211635 160.91155816 -78.83837891 170.11425781 C-83.63749356 178.58981882 -88.3675606 187.10300355 -93.09155273 195.62060547 C-99.60963765 207.37074082 -106.17780833 219.09256932 -112.75 230.8125 C-114.72030498 234.32647299 -116.69047018 237.84052371 -118.65991211 241.35498047 C-119.90508857 243.57690063 -121.15067778 245.79858954 -122.39672852 248.02001953 C-122.95287842 249.01243652 -123.50902832 250.00485352 -124.08203125 251.02734375 C-124.57421143 251.90511475 -125.0663916 252.78288574 -125.57348633 253.68725586 C-126.32648914 255.04747365 -127.05470069 256.42190138 -127.75 257.8125 C-131.61140222 256.37844155 -135.04785785 254.58103075 -138.59765625 252.49609375 C-139.15770859 252.16807266 -139.71776093 251.84005157 -140.29478455 251.50209045 C-142.13624393 250.4217897 -143.97445866 249.33610457 -145.8125 248.25 C-147.11388979 247.48430276 -148.41532281 246.71867899 -149.71679688 245.953125 C-159.02268032 240.46894205 -168.26450412 234.88292099 -177.48342896 229.25411987 C-186.34973682 223.8421652 -195.27603986 218.54383717 -204.25 213.3125 C-215.17174489 206.94462158 -226.01366893 200.45702374 -236.80395508 193.86889648 C-242.15778521 190.60058556 -247.51721444 187.34534103 -252.9140625 184.1484375 C-253.85306396 183.5913208 -254.79206543 183.0342041 -255.75952148 182.46020508 C-257.49606142 181.43227602 -259.23502054 180.40841866 -260.97680664 179.3894043 C-262.10783813 178.71905151 -262.10783813 178.71905151 -263.26171875 178.03515625 C-263.91615967 177.65109619 -264.57060059 177.26703613 -265.24487305 176.87133789 C-266.75 175.8125 -266.75 175.8125 -267.75 173.8125 C-268.125 171 -268.125 171 -267.75 167.8125 C-263.27629699 162.28616098 -256.98457569 158.85638407 -251.0625 155.0625 C-249.89996748 154.31120124 -248.73786591 153.55923525 -247.57617188 152.80664062 C-245.16523145 151.24546296 -242.75247234 149.68715659 -240.33837891 148.13085938 C-234.79144582 144.55151835 -229.27224766 140.92975527 -223.75 137.3125 C-221.58346257 135.8956357 -219.41679549 134.47896962 -217.25 133.0625 C-216.1775 132.36125 -215.105 131.66 -214 130.9375 C-74.25 39.5625 -74.25 39.5625 -70.99731445 37.43579102 C-68.83954221 36.02490874 -66.68182699 34.61393926 -64.52416992 33.20288086 C-59.54817432 29.94883916 -54.57169986 26.69553998 -49.59303284 23.44558716 C-47.30856303 21.95428649 -45.02437493 20.46255476 -42.74026489 18.97070312 C-41.08604055 17.8903737 -39.43157183 16.81041852 -37.77709961 15.73046875 C-31.1564673 11.40345819 -24.55413669 7.05099065 -18.02270508 2.59008789 C-12.32416273 -1.26214399 -6.48759259 -2.80146044 0 0 Z " fill="#4B89A9" transform="translate(379.75,104.1875)"/>
<path d="M0 0 C1.58759179 3.5487346 1.10053682 5.66384219 0.0625 9.375 C-2.38352608 11.12881412 -4.27136766 12.1915331 -6.984375 13.34375 C-7.70308777 13.67475708 -8.42180054 14.00576416 -9.16229248 14.34680176 C-10.66837665 15.03750205 -12.17978951 15.71668931 -13.69604492 16.38476562 C-15.79639313 17.31266153 -17.87752075 18.27232594 -19.95507812 19.25 C-24.01763762 21.15823116 -28.10086993 23.01899901 -32.1875 24.875 C-33.70852173 25.56838453 -35.22951716 26.26182674 -36.75048828 26.95532227 C-48.15340199 32.14618094 -59.59943094 37.23772953 -71.05749512 42.30541992 C-82.56395788 47.39655454 -94.01435832 52.59975267 -105.4375 57.875 C-118.3483809 63.83729058 -131.30562343 69.68131212 -144.31201172 75.43212891 C-155.39160245 80.33257819 -166.42843974 85.31817063 -177.4375 90.375 C-189.23409186 95.79324629 -201.06612812 101.12263062 -212.9375 106.375 C-224.95362639 111.69179375 -236.93170198 117.08402409 -248.875 122.5625 C-262.9094087 128.99832009 -276.96903318 135.37004994 -291.07568359 141.64648438 C-294.62534519 143.23077771 -298.16407858 144.83859588 -301.70207214 146.44874573 C-304.80867928 147.85989314 -307.92012883 149.26014645 -311.03244019 150.65866089 C-312.53706545 151.33759804 -314.03966614 152.02104225 -315.54006958 152.70925903 C-317.63342552 153.66862917 -319.73358442 154.61132538 -321.8359375 155.55078125 C-322.45136917 155.83757751 -323.06680084 156.12437378 -323.70088196 156.41986084 C-328.45840104 158.51536533 -333.02130784 159.3416637 -338.046875 157.67578125 C-341.96693173 155.31441374 -344.12859581 153.56150539 -345.9375 149.375 C-346.36528174 145.66567835 -346.31612516 141.98075874 -346.27807617 138.25073242 C-346.27851425 137.12834167 -346.27895233 136.00595093 -346.27940369 134.84954834 C-346.27731518 131.14301098 -346.25398039 127.43692701 -346.23046875 123.73046875 C-346.22487304 121.15928901 -346.22060282 118.58810608 -346.21760559 116.016922 C-346.20732507 109.94316438 -346.18368556 103.86959362 -346.15355712 97.79590636 C-346.11999447 90.87937909 -346.10352244 83.96284394 -346.08847082 77.04625547 C-346.05713532 62.82241648 -346.0043865 48.59871401 -345.9375 34.375 C-302.98148176 29.63480704 -260.02452377 24.90321631 -217.06628462 20.18319067 C-211.99681962 19.62617701 -206.92736247 19.069092 -201.85791016 18.51196289 C-200.84865623 18.40104783 -199.8394023 18.29013278 -198.79956491 18.17585666 C-182.44926814 16.37881834 -166.09961382 14.57599803 -149.75018887 12.77104711 C-132.97917957 10.91968394 -116.20749668 9.07451978 -99.43516982 7.23513085 C-89.08243494 6.09956787 -78.73025845 4.95914981 -68.37873979 3.81255222 C-61.28414217 3.0271795 -54.18890037 2.24781894 -47.09311883 1.47321635 C-42.99681258 1.02586725 -38.90084645 0.57584113 -34.8056221 0.11868477 C-31.05709651 -0.29970993 -27.30782337 -0.71055575 -23.55780979 -1.11539029 C-21.55743477 -1.33333306 -19.55794631 -1.5593659 -17.55850065 -1.78567606 C-16.36916665 -1.91257065 -15.17983266 -2.03946524 -13.95445824 -2.17020512 C-12.92997279 -2.28298205 -11.90548733 -2.39575899 -10.84995687 -2.51195341 C-6.78078009 -2.66989791 -3.1968453 -2.68122509 0 0 Z " fill="#4B8AAA" transform="translate(857.9375,780.625)"/>
<path d="M0 0 C0.95781864 0.10631756 1.91563728 0.21263512 2.90248072 0.32217443 C5.02546258 0.55927799 7.14739041 0.80595729 9.26832628 1.06071424 C12.77691522 1.47653744 16.28780562 1.85528423 19.80161667 2.22426224 C27.29912321 3.01304702 34.79303147 3.83221144 42.2867353 4.65613222 C46.19760712 5.0856654 50.10873862 5.51282264 54.01983643 5.94029236 C60.76946551 6.67832171 67.51893435 7.4178016 74.26829147 8.15831375 C84.02630448 9.22892125 93.78456399 10.29726807 103.54288192 11.3650922 C119.38141151 13.0983169 135.21974483 14.8333283 151.05795288 16.56948853 C166.42829165 18.2543577 181.79872394 19.93836973 197.16928101 21.62124634 C198.11933967 21.72526574 199.06939834 21.82928513 200.04824667 21.93645664 C204.81519399 22.45837173 209.58214314 22.98027016 214.3490932 23.50216031 C253.79285693 27.82052219 293.2363014 32.14179434 332.67953491 36.46499634 C332.77304589 51.22506063 332.84354715 65.98508563 332.8867836 80.74538612 C332.90739418 87.59912656 332.93548565 94.45268276 332.98129272 101.30630493 C333.02547415 107.91986044 333.04866999 114.5332748 333.05904388 121.1469841 C333.06643723 123.67078032 333.08087453 126.19456601 333.10245514 128.71828079 C333.13147258 132.25208463 333.13549144 135.78509653 333.13363647 139.31900024 C333.14801758 140.36341278 333.16239868 141.40782532 333.17721558 142.48388672 C333.14312861 148.48132046 332.67734479 151.90046171 328.67953491 156.46499634 C325.13836923 159.45531402 322.51224033 160.95140866 317.82479858 160.81802368 C312.99884417 160.02385843 308.63755968 157.64668447 304.24203491 155.58999634 C302.44697402 154.77105494 300.65189654 153.95214939 298.85636902 153.13423157 C296.87788925 152.23081522 294.90214124 151.32160738 292.92660522 150.41177368 C288.45747591 148.35782993 283.9722849 146.34044942 279.48422241 144.32827759 C278.68840256 143.97138855 277.8925827 143.61449951 277.07264709 143.24679565 C275.42728701 142.50893881 273.78191637 141.77110549 272.13653564 141.03329468 C256.42140743 133.98005565 240.73025324 126.87342698 225.03814697 119.76916504 C211.43540432 113.61096406 197.82320446 107.47412498 184.20407104 101.3522644 C174.83105955 97.13882109 165.46169965 92.91757522 156.10140991 88.67593384 C155.22095505 88.27697906 154.34050018 87.87802429 153.43336487 87.46697998 C151.65395649 86.66064471 149.8745528 85.85429909 148.09515381 85.04794312 C146.77567245 84.45000946 146.77567245 84.45000946 145.42953491 83.83999634 C144.5517337 83.44217957 143.6739325 83.04436279 142.76953125 82.63449097 C129.92418469 76.81499987 117.04924302 71.0662123 104.15304565 65.36044312 C92.78272658 60.32627283 81.46929949 55.17710456 70.17953491 49.96499634 C57.84388288 44.27032954 45.47478199 38.6603462 33.05453491 33.15249634 C32.31027252 32.82214386 31.56601013 32.49179138 30.79919434 32.15142822 C23.71072856 29.00590154 16.61794536 25.87070847 9.51034546 22.76863098 C7.57900212 21.92512457 5.64885686 21.07893823 3.71908569 20.23184204 C1.38548534 19.20865777 -0.9506358 18.19119587 -3.28970337 17.18057251 C-4.3117688 16.73173706 -5.33383423 16.28290161 -6.38687134 15.82046509 C-7.27318237 15.4352771 -8.15949341 15.05008911 -9.07266235 14.65322876 C-11.32753019 13.46126159 -12.75514914 12.47156326 -14.32046509 10.46499634 C-14.82046509 7.02749634 -14.82046509 7.02749634 -14.32046509 3.46499634 C-9.97058178 -1.57099695 -6.04446537 -0.79033531 0 0 Z " fill="#4B89A9" transform="translate(126.32046508789063,778.5350036621094)"/>
<path d="M0 0 C4.11922755 4.62555147 3.41524083 10.14241548 3.3742218 15.97645569 C3.37819621 17.0967989 3.38217061 18.2171421 3.38626546 19.37143511 C3.39590574 23.13324974 3.3840595 26.89468993 3.37231445 30.65649414 C3.37474183 33.35022496 3.37834408 36.04393084 3.38337708 38.73765564 C3.39286539 45.29898912 3.38626515 51.86021262 3.37411413 58.42153794 C3.36049416 66.06054518 3.36213197 73.69952622 3.36424746 81.33854251 C3.36743734 94.9666844 3.3557693 108.59477401 3.33618164 122.22290039 C3.31717375 135.45110669 3.31009507 148.67925173 3.31567383 161.9074707 C3.32172943 176.30897952 3.32155886 190.7104614 3.310188 205.11196798 C3.30898069 206.64708324 3.3077747 208.1821985 3.30657005 209.71731377 C3.30596651 210.47264219 3.30536298 211.22797062 3.30474115 212.00618779 C3.30085946 217.33286936 3.30125658 222.65954091 3.3031559 227.98622322 C3.30527636 234.47553285 3.30006502 240.96478878 3.28554235 247.45408327 C3.27829091 250.76595292 3.27529558 254.07772823 3.27878571 257.38960648 C3.28199314 260.97666776 3.27296186 264.56349114 3.26069641 268.15052795 C3.26447573 269.20158582 3.26825506 270.25264369 3.27214891 271.3355518 C3.26631671 272.29488289 3.26048452 273.25421397 3.25447559 274.2426157 C3.25360882 275.07073342 3.25274204 275.89885114 3.251849 276.75206333 C2.96811923 279.28455922 2.38220308 280.86390278 1 283 C-1.8125 284.4375 -1.8125 284.4375 -5 285 C-9.39097477 283.00663685 -11.32081866 280.49219122 -13.8125 276.4375 C-14.1830249 275.84163086 -14.5535498 275.24576172 -14.93530273 274.63183594 C-15.79872626 273.23876643 -16.65643529 271.84214598 -17.50976562 270.44287109 C-19.18854768 267.69092266 -20.88279829 264.9488175 -22.578125 262.20703125 C-25.66766241 257.20424288 -28.74661299 252.19503716 -31.82051086 247.18263245 C-35.54021263 241.11757164 -39.26997191 235.05871459 -43 229 C-44.33337878 226.8333613 -45.66671203 224.66669458 -47 222.5 C-47.66 221.4275 -48.32 220.355 -49 219.25 C-67 190 -85 160.75 -103 131.5 C-103.66088623 130.42613037 -104.32177246 129.35226074 -105.00268555 128.24584961 C-106.32732167 126.09317423 -107.65170587 123.94034381 -108.97583008 121.78735352 C-112.073113 116.75193102 -115.17275309 111.71801252 -118.28170776 106.68978882 C-119.73529167 104.33849873 -121.18740046 101.98629928 -122.6394043 99.6340332 C-123.65335586 97.99276849 -124.66941496 96.35280635 -125.68554688 94.71289062 C-129.27997453 88.88820796 -132.7470975 83.02266309 -136 77 C-128.95384936 72.12079908 -121.63025523 67.74482497 -114.2487793 63.40087891 C-110.67657056 61.29808637 -107.10960253 59.18644962 -103.54296875 57.07421875 C-102.81955292 56.64587738 -102.09613708 56.21753601 -101.35079956 55.7762146 C-94.53577993 51.73532351 -87.76383173 47.62582498 -81 43.5 C-70.33386088 36.99608914 -59.60821097 30.5988787 -48.85342407 24.24273682 C-38.11508854 17.8933592 -27.4624622 11.41688361 -16.88037109 4.81030273 C-15.38304443 3.87939819 -15.38304443 3.87939819 -13.85546875 2.9296875 C-12.55065552 2.11346924 -12.55065552 2.11346924 -11.21948242 1.28076172 C-7.13436963 -1.0765699 -4.50944567 -1.31525499 0 0 Z " fill="#4B8AAA" transform="translate(883,330)"/>
<path d="M0 0 C3.51619996 1.18074316 6.55888278 2.76603588 9.70166016 4.69726562 C10.32688568 5.07109375 10.95211121 5.44492187 11.59628296 5.83007812 C13.6448017 7.05803627 15.68485416 8.29936546 17.72509766 9.54101562 C19.16602031 10.40835599 20.60743384 11.27488134 22.04931641 12.140625 C26.40728787 14.76144194 30.75443281 17.3998595 35.10009766 20.04101562 C36.34058452 20.79374016 37.58114069 21.54635049 38.82177734 22.29882812 C43.38903436 25.06976506 47.95504613 27.84273213 52.51660156 30.62304688 C62.00522882 36.40225291 71.5546737 42.07590205 81.11593628 47.73391724 C92.17759407 54.2815805 103.18563268 60.91308106 114.15673828 67.61132812 C119.4321051 70.82901741 124.7106912 74.01769005 130.10009766 77.04101562 C129.45107826 80.29351409 128.26988623 82.73104806 126.58056641 85.57617188 C126.05922119 86.45781006 125.53787598 87.33944824 125.00073242 88.24780273 C124.43539795 89.19018799 123.87006348 90.13257324 123.28759766 91.10351562 C122.70228271 92.08650635 122.11696777 93.06949707 121.51391602 94.08227539 C117.34403478 101.051926 113.05610112 107.93960198 108.69042969 114.7878418 C104.76777567 120.94954417 100.94990436 127.1703183 97.16259766 133.41601562 C92.71542154 140.74871761 88.24625526 148.06616938 83.72509766 155.35351562 C78.89725983 163.13580117 74.08575187 170.92788885 69.28759766 178.72851562 C68.61615723 179.82010986 67.9447168 180.9117041 67.25292969 182.03637695 C65.88469434 184.26102387 64.51653062 186.48571484 63.1484375 188.71044922 C59.80016077 194.1546913 56.45005007 199.59780453 53.10009766 205.04101562 C51.76675524 207.2076767 50.43342191 209.37434337 49.10009766 211.54101562 C46.43343099 215.87434896 43.76676432 220.20768229 41.10009766 224.54101562 C40.43953369 225.61448242 39.77896973 226.68794922 39.09838867 227.79394531 C37.77093373 229.95095823 36.4432983 232.10786009 35.11547852 234.26464844 C31.33658061 240.40332723 27.56282699 246.54511312 23.79473877 252.69042969 C20.81235485 257.55217377 17.813019 262.40334262 14.8125 267.25390625 C13.29154746 269.72941156 11.79454515 272.21715926 10.30712891 274.71289062 C9.53016568 275.98916402 8.75286131 277.26522985 7.97509766 278.54101562 C7.04310547 280.10335937 7.04310547 280.10335937 6.09228516 281.69726562 C3.63211482 284.59158367 1.79662108 285.31253964 -1.89990234 286.04101562 C-4.84441128 284.73234499 -6.44691666 283.946987 -7.89990234 281.04101562 C-7.99752389 279.52930129 -8.03268824 278.01334943 -8.03691673 276.49849224 C-8.04199128 275.53617646 -8.04706582 274.57386068 -8.05229414 273.58238381 C-8.05279189 272.51771836 -8.05328965 271.45305292 -8.05380249 270.35612488 C-8.05818474 269.23088341 -8.062567 268.10564193 -8.06708205 266.94630224 C-8.08050968 263.14999087 -8.08665776 259.35370274 -8.09277344 255.55737305 C-8.10014233 252.84601051 -8.10893453 250.13465288 -8.11755371 247.42329407 C-8.14208927 239.26831339 -8.15670597 231.11332659 -8.16961378 222.95832035 C-8.17332468 220.65589028 -8.17729799 218.35346082 -8.18136644 216.05103135 C-8.20660046 201.76003351 -8.22865838 187.46903473 -8.24109459 173.17801952 C-8.24402439 169.86697066 -8.24698604 166.55592183 -8.25 163.24487305 C-8.25074605 162.42190593 -8.2514921 161.5989388 -8.25226076 160.75103328 C-8.26491932 147.41402903 -8.2981485 134.07715795 -8.33980183 120.74021598 C-8.38219477 107.05454743 -8.4057865 93.36894711 -8.41101515 79.68321306 C-8.41443214 71.9962545 -8.42622106 64.30950411 -8.45911789 56.62261009 C-8.48708331 50.07721941 -8.49813329 43.53207954 -8.48692243 36.98663374 C-8.48172654 33.64601719 -8.48739184 30.30635272 -8.50938797 26.9657402 C-8.53193178 23.34566913 -8.52385172 19.7269332 -8.50790405 16.1068573 C-8.52178614 15.04888402 -8.53566823 13.99091073 -8.54997098 12.90087765 C-8.49773908 8.10779299 -8.45789652 5.79606709 -5.54314613 1.851964 C-2.89990234 0.04101562 -2.89990234 0.04101562 0 0 Z " fill="#4B8AAA" transform="translate(92.89990234375,328.958984375)"/>
</svg>
